{
  "accessors": [
    {
      "name": "Default-Mesh_0_positions",
      "componentType": 5126,
      "count": 19198,
      "min": [
        -0.27326500415802,
        -0.006533000152558088,
        -0.5564759969711304
      ],
      "max": [
        0.2630400061607361,
        0.43522998690605164,
        0.6267549991607666
      ],
      "type": "VEC3",
      "bufferView": 0,
      "byteOffset": 0
    },
    {
      "name": "Default-Mesh_0_normals",
      "componentType": 5126,
      "count": 19198,
      "min": [
        -0.9999962449073792,
        -0.9999989867210388,
        -0.999882161617279
      ],
      "max": [
        0.9999998807907104,
        0.9999866485595703,
        1
      ],
      "type": "VEC3",
      "bufferView": 1,
      "byteOffset": 0
    },
    {
      "name": "Default-Mesh_0_texcoords",
      "componentType": 5126,
      "count": 19198,
      "min": [
        0.4763050079345703,
        0.09997999668121338
      ],
      "max": [
        0.748993992805481,
        0.7016050219535828
      ],
      "type": "VEC2",
      "bufferView": 2,
      "byteOffset": 0
    },
    {
      "name": "Default-Mesh_0_indices",
      "componentType": 5123,
      "count": 55731,
      "min": [
        0
      ],
      "max": [
        19197
      ],
      "type": "SCALAR",
      "bufferView": 3,
      "byteOffset": 0
    }
  ],
  "asset": {
    "generator": "obj2gltf",
    "version": "2.0"
  },
  "buffers": [
    {
      "name": "one",
      "byteLength": 895252,
      "uri": "data:application/octet-stream;base64,"
    }
  ],
  "bufferViews": [
    {
      "name": "bufferView_0",
      "buffer": 0,
      "byteLength": 230376,
      "byteOffset": 0,
      "byteStride": 12,
      "target": 34962
    },
    {
      "name": "bufferView_1",
      "buffer": 0,
      "byteLength": 230376,
      "byteOffset": 230376,
      "byteStride": 12,
      "target": 34962
    },
    {
      "name": "bufferView_2",
      "buffer": 0,
      "byteLength": 153584,
      "byteOffset": 460752,
      "byteStride": 8,
      "target": 34962
    },
    {
      "name": "bufferView_3",
      "buffer": 0,
      "byteLength": 111464,
      "byteOffset": 614336,
      "target": 34963
    },
    {
      "buffer": 0,
      "byteOffset": 725800,
      "byteLength": 169450
    }
  ],
  "images": [
    {
      "name": "white",
      "mimeType": "image/png",
      "bufferView": 4
    }
  ],
  "materials": [
    {
      "name": "Material.001",
      "pbrMetallicRoughness": {
        "baseColorTexture": {
          "index": 0
        },
        "baseColorFactor": [
          1,
          1,
          1,
          1
        ],
        "metallicFactor": 0,
        "roughnessFactor": 0.903921569
      },
      "emissiveFactor": [
        0,
        0,
        0
      ],
      "alphaMode": "OPAQUE",
      "doubleSided": false
    }
  ],
  "meshes": [
    {
      "name": "Default-Mesh",
      "primitives": [
        {
          "attributes": {
            "POSITION": 0,
            "NORMAL": 1,
            "TEXCOORD_0": 2
          },
          "indices": 3,
          "material": 0,
          "mode": 4
        }
      ]
    }
  ],
  "nodes": [
    {
      "name": "Default",
      "mesh": 0
    }
  ],
  "samplers": [
    {
      "magFilter": 9729,
      "minFilter": 9986,
      "wrapS": 10497,
      "wrapT": 10497
    }
  ],
  "scene": 0,
  "scenes": [
    {
      "nodes": [
        0
      ]
    }
  ],
  "textures": [
    {
      "name": "white",
      "sampler": 0,
      "source": 0
    }
  ]
}
