{
  "accessors": [
    {
      "name": "Default-Mesh_0_positions",
      "componentType": 5126,
      "count": 31131,
      "min": [
        -0.5610460042953491,
        -0.00675999978557229,
        -0.5564759969711304
      ],
      "max": [
        0.5643219947814941,
        0.4348370134830475,
        0.6267549991607666
      ],
      "type": "VEC3",
      "bufferView": 0,
      "byteOffset": 0
    },
    {
      "name": "Default-Mesh_0_normals",
      "componentType": 5126,
      "count": 31131,
      "min": [
        -0.9999999403953552,
        -0.9999989867210388,
        -0.9999434351921082
      ],
      "max": [
        0.9999998807907104,
        0.9999866485595703,
        1
      ],
      "type": "VEC3",
      "bufferView": 1,
      "byteOffset": 0
    },
    {
      "name": "Default-Mesh_0_texcoords",
      "componentType": 5126,
      "count": 31131,
      "min": [
        -0.0026420000940561295,
        -0.5827119946479797
      ],
      "max": [
        1.0009809732437134,
        1.2414699792861938
      ],
      "type": "VEC2",
      "bufferView": 2,
      "byteOffset": 0
    },
    {
      "name": "Default-Mesh_0_indices",
      "componentType": 5123,
      "count": 76524,
      "min": [
        0
      ],
      "max": [
        31130
      ],
      "type": "SCALAR",
      "bufferView": 3,
      "byteOffset": 0
    }
  ],
  "asset": {
    "generator": "obj2gltf",
    "version": "2.0"
  },
  "buffers": [
    {
      "name": "slide",
      "byteLength": 1149240,
      "uri": "data:application/octet-stream;base64,"
    }
  ],
  "bufferViews": [
    {
      "name": "bufferView_0",
      "buffer": 0,
      "byteLength": 373572,
      "byteOffset": 0,
      "byteStride": 12,
      "target": 34962
    },
    {
      "name": "bufferView_1",
      "buffer": 0,
      "byteLength": 373572,
      "byteOffset": 373572,
      "byteStride": 12,
      "target": 34962
    },
    {
      "name": "bufferView_2",
      "buffer": 0,
      "byteLength": 249048,
      "byteOffset": 747144,
      "byteStride": 8,
      "target": 34962
    },
    {
      "name": "bufferView_3",
      "buffer": 0,
      "byteLength": 153048,
      "byteOffset": 996192,
      "target": 34963
    }
  ],
  "materials": [
    {
      "name": "Material.001",
      "pbrMetallicRoughness": {
        "baseColorFactor": [
          0.64,
          0.64,
          0.64,
          1
        ],
        "metallicFactor": 0,
        "roughnessFactor": 0.905882353
      },
      "emissiveFactor": [
        0,
        0,
        0
      ],
      "alphaMode": "OPAQUE",
      "doubleSided": false
    }
  ],
  "meshes": [
    {
      "name": "Default-Mesh",
      "primitives": [
        {
          "attributes": {
            "POSITION": 0,
            "NORMAL": 1,
            "TEXCOORD_0": 2
          },
          "indices": 3,
          "material": 0,
          "mode": 4
        }
      ]
    }
  ],
  "nodes": [
    {
      "name": "Default",
      "mesh": 0
    }
  ],
  "scene": 0,
  "scenes": [
    {
      "nodes": [
        0
      ]
    }
  ]
}
